<mxfile host="65bd71144e">
    <diagram id="hJ0c-v4INaKqg9jSttW8" name="第1頁">
        <mxGraphModel dx="832" dy="563" grid="1" gridSize="10" guides="1" tooltips="1" connect="1" arrows="1" fold="1" page="1" pageScale="1" pageWidth="827" pageHeight="1169" math="0" shadow="0">
            <root>
                <mxCell id="0"/>
                <mxCell id="1" parent="0"/>
                <mxCell id="2" value="" style="strokeWidth=1;shadow=0;dashed=0;align=center;html=1;shape=mxgraph.mockup.containers.browserWindow;rSize=0;strokeColor=#666666;strokeColor2=#008cff;strokeColor3=#c4c4c4;mainText=,;recursiveResize=0;" parent="1" vertex="1">
                    <mxGeometry x="22" y="40" width="783" height="560" as="geometry"/>
                </mxCell>
                <mxCell id="3" value="momo" style="strokeWidth=1;shadow=0;dashed=0;align=center;html=1;shape=mxgraph.mockup.containers.anchor;fontSize=17;fontColor=#666666;align=left;" parent="2" vertex="1">
                    <mxGeometry x="60" y="12" width="110" height="26" as="geometry"/>
                </mxCell>
                <mxCell id="4" value="https://www.draw.io" style="strokeWidth=1;shadow=0;dashed=0;align=center;html=1;shape=mxgraph.mockup.containers.anchor;rSize=0;fontSize=17;fontColor=#666666;align=left;" parent="2" vertex="1">
                    <mxGeometry x="130" y="60" width="250" height="26" as="geometry"/>
                </mxCell>
                <mxCell id="12" value="" style="rounded=0;whiteSpace=wrap;html=1;" parent="2" vertex="1">
                    <mxGeometry x="20" y="130" width="190" height="60" as="geometry"/>
                </mxCell>
                <mxCell id="13" value="" style="rounded=0;whiteSpace=wrap;html=1;" parent="2" vertex="1">
                    <mxGeometry x="530" y="130" width="210" height="70" as="geometry"/>
                </mxCell>
                <mxCell id="5" value="" style="strokeWidth=1;shadow=0;dashed=0;align=center;html=1;shape=mxgraph.mockup.forms.rrect;rSize=0;strokeColor=#999999;" parent="2" vertex="1">
                    <mxGeometry x="350" y="212" width="390" height="30" as="geometry"/>
                </mxCell>
                <mxCell id="6" value="File" style="strokeColor=inherit;fillColor=inherit;gradientColor=inherit;strokeWidth=1;shadow=0;dashed=0;align=center;html=1;shape=mxgraph.mockup.forms.rrect;rSize=0;fontSize=17;fontColor=#666666;" parent="5" vertex="1">
                    <mxGeometry width="65" height="30" as="geometry"/>
                </mxCell>
                <mxCell id="7" value="Edit" style="strokeColor=inherit;fillColor=inherit;gradientColor=inherit;strokeWidth=1;shadow=0;dashed=0;align=center;html=1;shape=mxgraph.mockup.forms.rrect;rSize=0;fontSize=17;fontColor=#666666;" parent="5" vertex="1">
                    <mxGeometry x="65" width="65" height="30" as="geometry"/>
                </mxCell>
                <mxCell id="8" value="Options" style="strokeColor=inherit;fillColor=inherit;gradientColor=inherit;strokeWidth=1;shadow=0;dashed=0;align=center;html=1;shape=mxgraph.mockup.forms.rrect;rSize=0;fontSize=17;fontColor=#666666;" parent="5" vertex="1">
                    <mxGeometry x="130" width="65" height="30" as="geometry"/>
                </mxCell>
                <mxCell id="9" value="Tools" style="strokeColor=inherit;fillColor=inherit;gradientColor=inherit;strokeWidth=1;shadow=0;dashed=0;align=center;html=1;shape=mxgraph.mockup.forms.rrect;rSize=0;fontSize=17;fontColor=#666666;" parent="5" vertex="1">
                    <mxGeometry x="195.00000000000003" width="65" height="30" as="geometry"/>
                </mxCell>
                <mxCell id="10" value="Window" style="strokeColor=inherit;fillColor=inherit;gradientColor=inherit;strokeWidth=1;shadow=0;dashed=0;align=center;html=1;shape=mxgraph.mockup.forms.rrect;rSize=0;fontSize=17;fontColor=#666666;" parent="5" vertex="1">
                    <mxGeometry x="260" width="65" height="30" as="geometry"/>
                </mxCell>
                <mxCell id="11" value="Help" style="strokeColor=inherit;fillColor=inherit;gradientColor=inherit;strokeWidth=1;shadow=0;dashed=0;align=center;html=1;shape=mxgraph.mockup.forms.rrect;rSize=0;fontSize=17;fontColor=#666666;" parent="5" vertex="1">
                    <mxGeometry x="325" width="65" height="30" as="geometry"/>
                </mxCell>
                <mxCell id="26" value="搜尋" style="strokeWidth=1;shadow=0;dashed=0;align=center;html=1;shape=mxgraph.mockup.forms.searchBox;strokeColor=#999999;mainText=;strokeColor2=#008cff;fontColor=#666666;fontSize=17;align=left;spacingLeft=3;" parent="2" vertex="1">
                    <mxGeometry x="220" y="130" width="300" height="30" as="geometry"/>
                </mxCell>
                <mxCell id="27" value="" style="strokeWidth=1;shadow=0;dashed=0;align=center;html=1;shape=mxgraph.mockup.forms.rrect;rSize=0;strokeColor=#999999;spacing=2;fontSize=3;fillColor=default;" parent="2" vertex="1">
                    <mxGeometry x="229" y="173" width="290" height="20" as="geometry"/>
                </mxCell>
                <mxCell id="28" value="File" style="strokeColor=inherit;fillColor=inherit;gradientColor=inherit;strokeWidth=1;shadow=0;dashed=0;align=center;html=1;shape=mxgraph.mockup.forms.rrect;rSize=0;fontSize=17;fontColor=#666666;" parent="27" vertex="1">
                    <mxGeometry width="48.34" height="20" as="geometry"/>
                </mxCell>
                <mxCell id="29" value="Edit" style="strokeColor=inherit;fillColor=inherit;gradientColor=inherit;strokeWidth=1;shadow=0;dashed=0;align=center;html=1;shape=mxgraph.mockup.forms.rrect;rSize=0;fontSize=17;fontColor=#666666;" parent="27" vertex="1">
                    <mxGeometry x="40" width="44.19" height="20" as="geometry"/>
                </mxCell>
                <mxCell id="30" value="Options" style="strokeColor=inherit;fillColor=inherit;gradientColor=inherit;strokeWidth=1;shadow=0;dashed=0;align=center;html=1;shape=mxgraph.mockup.forms.rrect;rSize=0;fontSize=17;fontColor=#666666;" parent="27" vertex="1">
                    <mxGeometry x="84.19354838709677" width="60.80645161290323" height="20" as="geometry"/>
                </mxCell>
                <mxCell id="31" value="Tools" style="strokeColor=inherit;fillColor=inherit;gradientColor=inherit;strokeWidth=1;shadow=0;dashed=0;align=center;html=1;shape=mxgraph.mockup.forms.rrect;rSize=0;fontSize=17;fontColor=#666666;" parent="27" vertex="1">
                    <mxGeometry x="145" width="42.096774193548384" height="20" as="geometry"/>
                </mxCell>
                <mxCell id="32" value="Window" style="strokeColor=inherit;fillColor=inherit;gradientColor=inherit;strokeWidth=1;shadow=0;dashed=0;align=center;html=1;shape=mxgraph.mockup.forms.rrect;rSize=0;fontSize=17;fontColor=#666666;" parent="27" vertex="1">
                    <mxGeometry x="187.0967741935484" width="65.48387096774195" height="20" as="geometry"/>
                </mxCell>
                <mxCell id="33" value="Help" style="strokeColor=inherit;fillColor=inherit;gradientColor=inherit;strokeWidth=1;shadow=0;dashed=0;align=center;html=1;shape=mxgraph.mockup.forms.rrect;rSize=0;fontSize=17;fontColor=#666666;" parent="27" vertex="1">
                    <mxGeometry x="252.58064516129033" width="37.41935483870968" height="20" as="geometry"/>
                </mxCell>
                <mxCell id="37" value="全站商品分類" style="swimlane;strokeWidth=1;fontSize=15;fillColor=default;startSize=23;" parent="2" vertex="1">
                    <mxGeometry x="20" y="212" width="200" height="328" as="geometry"/>
                </mxCell>
                <mxCell id="122" value="" style="shape=table;html=1;whiteSpace=wrap;startSize=0;container=1;collapsible=0;childLayout=tableLayout;columnLines=0;rowLines=0;fontSize=15;" parent="37" vertex="1">
                    <mxGeometry y="85" width="200" height="60" as="geometry"/>
                </mxCell>
                <mxCell id="123" value="" style="shape=tableRow;horizontal=0;startSize=0;swimlaneHead=0;swimlaneBody=0;top=0;left=0;bottom=0;right=0;collapsible=0;dropTarget=0;fillColor=none;points=[[0,0.5],[1,0.5]];portConstraint=eastwest;fontSize=15;" parent="122" vertex="1">
                    <mxGeometry width="200" height="20" as="geometry"/>
                </mxCell>
                <mxCell id="124" value="Value 1" style="shape=partialRectangle;html=1;whiteSpace=wrap;connectable=0;fillColor=none;top=0;left=0;bottom=0;right=0;overflow=hidden;fontSize=12;" parent="123" vertex="1">
                    <mxGeometry width="66" height="20" as="geometry">
                        <mxRectangle width="66" height="20" as="alternateBounds"/>
                    </mxGeometry>
                </mxCell>
                <mxCell id="125" value="Value 2" style="shape=partialRectangle;html=1;whiteSpace=wrap;connectable=0;fillColor=none;top=0;left=0;bottom=0;right=0;overflow=hidden;fontSize=12;" parent="123" vertex="1">
                    <mxGeometry x="66" width="68" height="20" as="geometry">
                        <mxRectangle width="68" height="20" as="alternateBounds"/>
                    </mxGeometry>
                </mxCell>
                <mxCell id="126" value="Value 3" style="shape=partialRectangle;html=1;whiteSpace=wrap;connectable=0;fillColor=none;top=0;left=0;bottom=0;right=0;overflow=hidden;fontSize=12;" parent="123" vertex="1">
                    <mxGeometry x="134" width="66" height="20" as="geometry">
                        <mxRectangle width="66" height="20" as="alternateBounds"/>
                    </mxGeometry>
                </mxCell>
                <mxCell id="127" value="" style="shape=tableRow;horizontal=0;startSize=0;swimlaneHead=0;swimlaneBody=0;top=0;left=0;bottom=0;right=0;collapsible=0;dropTarget=0;fillColor=none;points=[[0,0.5],[1,0.5]];portConstraint=eastwest;fontSize=15;" parent="122" vertex="1">
                    <mxGeometry y="20" width="200" height="20" as="geometry"/>
                </mxCell>
                <mxCell id="128" value="Value 4" style="shape=partialRectangle;html=1;whiteSpace=wrap;connectable=0;fillColor=none;top=0;left=0;bottom=0;right=0;overflow=hidden;fontSize=12;" parent="127" vertex="1">
                    <mxGeometry width="66" height="20" as="geometry">
                        <mxRectangle width="66" height="20" as="alternateBounds"/>
                    </mxGeometry>
                </mxCell>
                <mxCell id="129" value="Value 5" style="shape=partialRectangle;html=1;whiteSpace=wrap;connectable=0;fillColor=none;top=0;left=0;bottom=0;right=0;overflow=hidden;fontSize=12;" parent="127" vertex="1">
                    <mxGeometry x="66" width="68" height="20" as="geometry">
                        <mxRectangle width="68" height="20" as="alternateBounds"/>
                    </mxGeometry>
                </mxCell>
                <mxCell id="130" value="Value 6" style="shape=partialRectangle;html=1;whiteSpace=wrap;connectable=0;fillColor=none;top=0;left=0;bottom=0;right=0;overflow=hidden;fontSize=12;" parent="127" vertex="1">
                    <mxGeometry x="134" width="66" height="20" as="geometry">
                        <mxRectangle width="66" height="20" as="alternateBounds"/>
                    </mxGeometry>
                </mxCell>
                <mxCell id="131" value="" style="shape=tableRow;horizontal=0;startSize=0;swimlaneHead=0;swimlaneBody=0;top=0;left=0;bottom=0;right=0;collapsible=0;dropTarget=0;fillColor=none;points=[[0,0.5],[1,0.5]];portConstraint=eastwest;fontSize=15;" parent="122" vertex="1">
                    <mxGeometry y="40" width="200" height="20" as="geometry"/>
                </mxCell>
                <mxCell id="132" value="Value 7" style="shape=partialRectangle;html=1;whiteSpace=wrap;connectable=0;fillColor=none;top=0;left=0;bottom=0;right=0;overflow=hidden;fontSize=12;" parent="131" vertex="1">
                    <mxGeometry width="66" height="20" as="geometry">
                        <mxRectangle width="66" height="20" as="alternateBounds"/>
                    </mxGeometry>
                </mxCell>
                <mxCell id="133" value="Value 8" style="shape=partialRectangle;html=1;whiteSpace=wrap;connectable=0;fillColor=none;top=0;left=0;bottom=0;right=0;overflow=hidden;fontSize=12;" parent="131" vertex="1">
                    <mxGeometry x="66" width="68" height="20" as="geometry">
                        <mxRectangle width="68" height="20" as="alternateBounds"/>
                    </mxGeometry>
                </mxCell>
                <mxCell id="134" value="Value 9" style="shape=partialRectangle;html=1;whiteSpace=wrap;connectable=0;fillColor=none;top=0;left=0;bottom=0;right=0;overflow=hidden;fontSize=12;" parent="131" vertex="1">
                    <mxGeometry x="134" width="66" height="20" as="geometry">
                        <mxRectangle width="66" height="20" as="alternateBounds"/>
                    </mxGeometry>
                </mxCell>
                <mxCell id="135" value="" style="shape=table;html=1;whiteSpace=wrap;startSize=0;container=1;collapsible=0;childLayout=tableLayout;columnLines=0;rowLines=0;fontSize=15;" parent="37" vertex="1">
                    <mxGeometry y="145" width="200" height="60" as="geometry"/>
                </mxCell>
                <mxCell id="136" value="" style="shape=tableRow;horizontal=0;startSize=0;swimlaneHead=0;swimlaneBody=0;top=0;left=0;bottom=0;right=0;collapsible=0;dropTarget=0;fillColor=none;points=[[0,0.5],[1,0.5]];portConstraint=eastwest;fontSize=15;" parent="135" vertex="1">
                    <mxGeometry width="200" height="20" as="geometry"/>
                </mxCell>
                <mxCell id="137" value="Value 1" style="shape=partialRectangle;html=1;whiteSpace=wrap;connectable=0;fillColor=none;top=0;left=0;bottom=0;right=0;overflow=hidden;fontSize=12;" parent="136" vertex="1">
                    <mxGeometry width="66" height="20" as="geometry">
                        <mxRectangle width="66" height="20" as="alternateBounds"/>
                    </mxGeometry>
                </mxCell>
                <mxCell id="138" value="Value 2" style="shape=partialRectangle;html=1;whiteSpace=wrap;connectable=0;fillColor=none;top=0;left=0;bottom=0;right=0;overflow=hidden;fontSize=12;" parent="136" vertex="1">
                    <mxGeometry x="66" width="68" height="20" as="geometry">
                        <mxRectangle width="68" height="20" as="alternateBounds"/>
                    </mxGeometry>
                </mxCell>
                <mxCell id="139" value="Value 3" style="shape=partialRectangle;html=1;whiteSpace=wrap;connectable=0;fillColor=none;top=0;left=0;bottom=0;right=0;overflow=hidden;fontSize=12;" parent="136" vertex="1">
                    <mxGeometry x="134" width="66" height="20" as="geometry">
                        <mxRectangle width="66" height="20" as="alternateBounds"/>
                    </mxGeometry>
                </mxCell>
                <mxCell id="140" value="" style="shape=tableRow;horizontal=0;startSize=0;swimlaneHead=0;swimlaneBody=0;top=0;left=0;bottom=0;right=0;collapsible=0;dropTarget=0;fillColor=none;points=[[0,0.5],[1,0.5]];portConstraint=eastwest;fontSize=15;" parent="135" vertex="1">
                    <mxGeometry y="20" width="200" height="20" as="geometry"/>
                </mxCell>
                <mxCell id="141" value="Value 4" style="shape=partialRectangle;html=1;whiteSpace=wrap;connectable=0;fillColor=none;top=0;left=0;bottom=0;right=0;overflow=hidden;fontSize=12;" parent="140" vertex="1">
                    <mxGeometry width="66" height="20" as="geometry">
                        <mxRectangle width="66" height="20" as="alternateBounds"/>
                    </mxGeometry>
                </mxCell>
                <mxCell id="142" value="Value 5" style="shape=partialRectangle;html=1;whiteSpace=wrap;connectable=0;fillColor=none;top=0;left=0;bottom=0;right=0;overflow=hidden;fontSize=12;" parent="140" vertex="1">
                    <mxGeometry x="66" width="68" height="20" as="geometry">
                        <mxRectangle width="68" height="20" as="alternateBounds"/>
                    </mxGeometry>
                </mxCell>
                <mxCell id="143" value="Value 6" style="shape=partialRectangle;html=1;whiteSpace=wrap;connectable=0;fillColor=none;top=0;left=0;bottom=0;right=0;overflow=hidden;fontSize=12;" parent="140" vertex="1">
                    <mxGeometry x="134" width="66" height="20" as="geometry">
                        <mxRectangle width="66" height="20" as="alternateBounds"/>
                    </mxGeometry>
                </mxCell>
                <mxCell id="144" value="" style="shape=tableRow;horizontal=0;startSize=0;swimlaneHead=0;swimlaneBody=0;top=0;left=0;bottom=0;right=0;collapsible=0;dropTarget=0;fillColor=none;points=[[0,0.5],[1,0.5]];portConstraint=eastwest;fontSize=15;" parent="135" vertex="1">
                    <mxGeometry y="40" width="200" height="20" as="geometry"/>
                </mxCell>
                <mxCell id="145" value="Value 7" style="shape=partialRectangle;html=1;whiteSpace=wrap;connectable=0;fillColor=none;top=0;left=0;bottom=0;right=0;overflow=hidden;fontSize=12;" parent="144" vertex="1">
                    <mxGeometry width="66" height="20" as="geometry">
                        <mxRectangle width="66" height="20" as="alternateBounds"/>
                    </mxGeometry>
                </mxCell>
                <mxCell id="146" value="Value 8" style="shape=partialRectangle;html=1;whiteSpace=wrap;connectable=0;fillColor=none;top=0;left=0;bottom=0;right=0;overflow=hidden;fontSize=12;" parent="144" vertex="1">
                    <mxGeometry x="66" width="68" height="20" as="geometry">
                        <mxRectangle width="68" height="20" as="alternateBounds"/>
                    </mxGeometry>
                </mxCell>
                <mxCell id="147" value="Value 9" style="shape=partialRectangle;html=1;whiteSpace=wrap;connectable=0;fillColor=none;top=0;left=0;bottom=0;right=0;overflow=hidden;fontSize=12;" parent="144" vertex="1">
                    <mxGeometry x="134" width="66" height="20" as="geometry">
                        <mxRectangle width="66" height="20" as="alternateBounds"/>
                    </mxGeometry>
                </mxCell>
                <mxCell id="148" value="" style="shape=table;html=1;whiteSpace=wrap;startSize=0;container=1;collapsible=0;childLayout=tableLayout;columnLines=0;rowLines=0;fontSize=15;" parent="37" vertex="1">
                    <mxGeometry y="206" width="200" height="60" as="geometry"/>
                </mxCell>
                <mxCell id="149" value="" style="shape=tableRow;horizontal=0;startSize=0;swimlaneHead=0;swimlaneBody=0;top=0;left=0;bottom=0;right=0;collapsible=0;dropTarget=0;fillColor=none;points=[[0,0.5],[1,0.5]];portConstraint=eastwest;fontSize=15;" parent="148" vertex="1">
                    <mxGeometry width="200" height="20" as="geometry"/>
                </mxCell>
                <mxCell id="150" value="Value 1" style="shape=partialRectangle;html=1;whiteSpace=wrap;connectable=0;fillColor=none;top=0;left=0;bottom=0;right=0;overflow=hidden;fontSize=12;" parent="149" vertex="1">
                    <mxGeometry width="66" height="20" as="geometry">
                        <mxRectangle width="66" height="20" as="alternateBounds"/>
                    </mxGeometry>
                </mxCell>
                <mxCell id="151" value="Value 2" style="shape=partialRectangle;html=1;whiteSpace=wrap;connectable=0;fillColor=none;top=0;left=0;bottom=0;right=0;overflow=hidden;fontSize=12;" parent="149" vertex="1">
                    <mxGeometry x="66" width="68" height="20" as="geometry">
                        <mxRectangle width="68" height="20" as="alternateBounds"/>
                    </mxGeometry>
                </mxCell>
                <mxCell id="152" value="Value 3" style="shape=partialRectangle;html=1;whiteSpace=wrap;connectable=0;fillColor=none;top=0;left=0;bottom=0;right=0;overflow=hidden;fontSize=12;" parent="149" vertex="1">
                    <mxGeometry x="134" width="66" height="20" as="geometry">
                        <mxRectangle width="66" height="20" as="alternateBounds"/>
                    </mxGeometry>
                </mxCell>
                <mxCell id="153" value="" style="shape=tableRow;horizontal=0;startSize=0;swimlaneHead=0;swimlaneBody=0;top=0;left=0;bottom=0;right=0;collapsible=0;dropTarget=0;fillColor=none;points=[[0,0.5],[1,0.5]];portConstraint=eastwest;fontSize=15;" parent="148" vertex="1">
                    <mxGeometry y="20" width="200" height="20" as="geometry"/>
                </mxCell>
                <mxCell id="154" value="Value 4" style="shape=partialRectangle;html=1;whiteSpace=wrap;connectable=0;fillColor=none;top=0;left=0;bottom=0;right=0;overflow=hidden;fontSize=12;" parent="153" vertex="1">
                    <mxGeometry width="66" height="20" as="geometry">
                        <mxRectangle width="66" height="20" as="alternateBounds"/>
                    </mxGeometry>
                </mxCell>
                <mxCell id="155" value="Value 5" style="shape=partialRectangle;html=1;whiteSpace=wrap;connectable=0;fillColor=none;top=0;left=0;bottom=0;right=0;overflow=hidden;fontSize=12;" parent="153" vertex="1">
                    <mxGeometry x="66" width="68" height="20" as="geometry">
                        <mxRectangle width="68" height="20" as="alternateBounds"/>
                    </mxGeometry>
                </mxCell>
                <mxCell id="156" value="Value 6" style="shape=partialRectangle;html=1;whiteSpace=wrap;connectable=0;fillColor=none;top=0;left=0;bottom=0;right=0;overflow=hidden;fontSize=12;" parent="153" vertex="1">
                    <mxGeometry x="134" width="66" height="20" as="geometry">
                        <mxRectangle width="66" height="20" as="alternateBounds"/>
                    </mxGeometry>
                </mxCell>
                <mxCell id="157" value="" style="shape=tableRow;horizontal=0;startSize=0;swimlaneHead=0;swimlaneBody=0;top=0;left=0;bottom=0;right=0;collapsible=0;dropTarget=0;fillColor=none;points=[[0,0.5],[1,0.5]];portConstraint=eastwest;fontSize=15;" parent="148" vertex="1">
                    <mxGeometry y="40" width="200" height="20" as="geometry"/>
                </mxCell>
                <mxCell id="158" value="Value 7" style="shape=partialRectangle;html=1;whiteSpace=wrap;connectable=0;fillColor=none;top=0;left=0;bottom=0;right=0;overflow=hidden;fontSize=12;" parent="157" vertex="1">
                    <mxGeometry width="66" height="20" as="geometry">
                        <mxRectangle width="66" height="20" as="alternateBounds"/>
                    </mxGeometry>
                </mxCell>
                <mxCell id="159" value="Value 8" style="shape=partialRectangle;html=1;whiteSpace=wrap;connectable=0;fillColor=none;top=0;left=0;bottom=0;right=0;overflow=hidden;fontSize=12;" parent="157" vertex="1">
                    <mxGeometry x="66" width="68" height="20" as="geometry">
                        <mxRectangle width="68" height="20" as="alternateBounds"/>
                    </mxGeometry>
                </mxCell>
                <mxCell id="160" value="Value 9" style="shape=partialRectangle;html=1;whiteSpace=wrap;connectable=0;fillColor=none;top=0;left=0;bottom=0;right=0;overflow=hidden;fontSize=12;" parent="157" vertex="1">
                    <mxGeometry x="134" width="66" height="20" as="geometry">
                        <mxRectangle width="66" height="20" as="alternateBounds"/>
                    </mxGeometry>
                </mxCell>
                <mxCell id="161" value="" style="shape=table;html=1;whiteSpace=wrap;startSize=0;container=1;collapsible=0;childLayout=tableLayout;columnLines=0;rowLines=0;fontSize=15;" parent="37" vertex="1">
                    <mxGeometry y="267" width="200" height="60" as="geometry"/>
                </mxCell>
                <mxCell id="162" value="" style="shape=tableRow;horizontal=0;startSize=0;swimlaneHead=0;swimlaneBody=0;top=0;left=0;bottom=0;right=0;collapsible=0;dropTarget=0;fillColor=none;points=[[0,0.5],[1,0.5]];portConstraint=eastwest;fontSize=15;" parent="161" vertex="1">
                    <mxGeometry width="200" height="20" as="geometry"/>
                </mxCell>
                <mxCell id="163" value="Value 1" style="shape=partialRectangle;html=1;whiteSpace=wrap;connectable=0;fillColor=none;top=0;left=0;bottom=0;right=0;overflow=hidden;fontSize=12;" parent="162" vertex="1">
                    <mxGeometry width="66" height="20" as="geometry">
                        <mxRectangle width="66" height="20" as="alternateBounds"/>
                    </mxGeometry>
                </mxCell>
                <mxCell id="164" value="Value 2" style="shape=partialRectangle;html=1;whiteSpace=wrap;connectable=0;fillColor=none;top=0;left=0;bottom=0;right=0;overflow=hidden;fontSize=12;" parent="162" vertex="1">
                    <mxGeometry x="66" width="68" height="20" as="geometry">
                        <mxRectangle width="68" height="20" as="alternateBounds"/>
                    </mxGeometry>
                </mxCell>
                <mxCell id="165" value="Value 3" style="shape=partialRectangle;html=1;whiteSpace=wrap;connectable=0;fillColor=none;top=0;left=0;bottom=0;right=0;overflow=hidden;fontSize=12;" parent="162" vertex="1">
                    <mxGeometry x="134" width="66" height="20" as="geometry">
                        <mxRectangle width="66" height="20" as="alternateBounds"/>
                    </mxGeometry>
                </mxCell>
                <mxCell id="166" value="" style="shape=tableRow;horizontal=0;startSize=0;swimlaneHead=0;swimlaneBody=0;top=0;left=0;bottom=0;right=0;collapsible=0;dropTarget=0;fillColor=none;points=[[0,0.5],[1,0.5]];portConstraint=eastwest;fontSize=15;" parent="161" vertex="1">
                    <mxGeometry y="20" width="200" height="20" as="geometry"/>
                </mxCell>
                <mxCell id="167" value="Value 4" style="shape=partialRectangle;html=1;whiteSpace=wrap;connectable=0;fillColor=none;top=0;left=0;bottom=0;right=0;overflow=hidden;fontSize=12;" parent="166" vertex="1">
                    <mxGeometry width="66" height="20" as="geometry">
                        <mxRectangle width="66" height="20" as="alternateBounds"/>
                    </mxGeometry>
                </mxCell>
                <mxCell id="168" value="Value 5" style="shape=partialRectangle;html=1;whiteSpace=wrap;connectable=0;fillColor=none;top=0;left=0;bottom=0;right=0;overflow=hidden;fontSize=12;" parent="166" vertex="1">
                    <mxGeometry x="66" width="68" height="20" as="geometry">
                        <mxRectangle width="68" height="20" as="alternateBounds"/>
                    </mxGeometry>
                </mxCell>
                <mxCell id="169" value="Value 6" style="shape=partialRectangle;html=1;whiteSpace=wrap;connectable=0;fillColor=none;top=0;left=0;bottom=0;right=0;overflow=hidden;fontSize=12;" parent="166" vertex="1">
                    <mxGeometry x="134" width="66" height="20" as="geometry">
                        <mxRectangle width="66" height="20" as="alternateBounds"/>
                    </mxGeometry>
                </mxCell>
                <mxCell id="170" value="" style="shape=tableRow;horizontal=0;startSize=0;swimlaneHead=0;swimlaneBody=0;top=0;left=0;bottom=0;right=0;collapsible=0;dropTarget=0;fillColor=none;points=[[0,0.5],[1,0.5]];portConstraint=eastwest;fontSize=15;" parent="161" vertex="1">
                    <mxGeometry y="40" width="200" height="20" as="geometry"/>
                </mxCell>
                <mxCell id="171" value="Value 7" style="shape=partialRectangle;html=1;whiteSpace=wrap;connectable=0;fillColor=none;top=0;left=0;bottom=0;right=0;overflow=hidden;fontSize=12;" parent="170" vertex="1">
                    <mxGeometry width="66" height="20" as="geometry">
                        <mxRectangle width="66" height="20" as="alternateBounds"/>
                    </mxGeometry>
                </mxCell>
                <mxCell id="172" value="Value 8" style="shape=partialRectangle;html=1;whiteSpace=wrap;connectable=0;fillColor=none;top=0;left=0;bottom=0;right=0;overflow=hidden;fontSize=12;" parent="170" vertex="1">
                    <mxGeometry x="66" width="68" height="20" as="geometry">
                        <mxRectangle width="68" height="20" as="alternateBounds"/>
                    </mxGeometry>
                </mxCell>
                <mxCell id="173" value="Value 9" style="shape=partialRectangle;html=1;whiteSpace=wrap;connectable=0;fillColor=none;top=0;left=0;bottom=0;right=0;overflow=hidden;fontSize=12;" parent="170" vertex="1">
                    <mxGeometry x="134" width="66" height="20" as="geometry">
                        <mxRectangle width="66" height="20" as="alternateBounds"/>
                    </mxGeometry>
                </mxCell>
                <mxCell id="49" value="" style="verticalLabelPosition=bottom;shadow=0;dashed=0;align=center;html=1;verticalAlign=top;strokeWidth=1;shape=mxgraph.mockup.graphics.simpleIcon;strokeColor=#999999;fontSize=3;fillColor=default;" parent="2" vertex="1">
                    <mxGeometry x="680" y="350" width="60" height="60" as="geometry"/>
                </mxCell>
                <mxCell id="51" value="" style="strokeWidth=1;shadow=0;dashed=0;align=center;html=1;shape=mxgraph.mockup.text.textBox;fontColor=#666666;align=left;fontSize=17;spacingLeft=4;spacingTop=-3;strokeColor=#666666;mainText=;fillColor=default;" parent="2" vertex="1">
                    <mxGeometry x="680" y="260" width="60" height="20" as="geometry"/>
                </mxCell>
                <mxCell id="81" value="&amp;nbsp;結帳" style="strokeWidth=1;shadow=0;dashed=0;align=center;html=1;shape=mxgraph.mockup.text.textBox;fontColor=#666666;align=left;fontSize=17;spacingLeft=4;spacingTop=-3;strokeColor=#666666;mainText=;fillColor=default;" parent="2" vertex="1">
                    <mxGeometry x="683" y="320" width="55" height="20" as="geometry"/>
                </mxCell>
                <mxCell id="80" value="購物車" style="strokeWidth=1;shadow=0;dashed=0;align=center;html=1;shape=mxgraph.mockup.text.textBox;fontColor=#666666;align=left;fontSize=17;spacingLeft=4;spacingTop=-3;strokeColor=#666666;mainText=;fillColor=default;" parent="2" vertex="1">
                    <mxGeometry x="680" y="290" width="60" height="20" as="geometry"/>
                </mxCell>
                <mxCell id="174" value="今日秒殺" style="swimlane;fontSize=15;" parent="2" vertex="1">
                    <mxGeometry x="520" y="260" width="140" height="180" as="geometry"/>
                </mxCell>
                <mxCell id="175" value="" style="swimlane;whiteSpace=wrap;html=1;fontSize=15;" parent="2" vertex="1">
                    <mxGeometry x="240" y="455" width="150" height="85" as="geometry"/>
                </mxCell>
                <mxCell id="176" value="" style="swimlane;whiteSpace=wrap;html=1;fontSize=15;" parent="2" vertex="1">
                    <mxGeometry x="413" y="455" width="150" height="85" as="geometry"/>
                </mxCell>
                <mxCell id="178" value="" style="verticalLabelPosition=bottom;shadow=0;dashed=0;align=center;html=1;verticalAlign=top;strokeWidth=1;shape=mxgraph.mockup.graphics.simpleIcon;strokeColor=#999999;fontSize=15;" parent="176" vertex="1">
                    <mxGeometry x="9.5" y="29" width="50" height="50" as="geometry"/>
                </mxCell>
                <mxCell id="177" value="" style="swimlane;whiteSpace=wrap;html=1;fontSize=15;startSize=23;" parent="2" vertex="1">
                    <mxGeometry x="588" y="455" width="150" height="85" as="geometry"/>
                </mxCell>
                <mxCell id="190" value="" style="verticalLabelPosition=bottom;shadow=0;dashed=0;align=center;html=1;verticalAlign=top;strokeWidth=1;shape=mxgraph.mockup.graphics.simpleIcon;strokeColor=#999999;fontSize=12;" parent="177" vertex="1">
                    <mxGeometry x="8" y="29" width="50" height="50" as="geometry"/>
                </mxCell>
                <mxCell id="184" value="" style="rounded=1;whiteSpace=wrap;html=1;fontSize=12;" parent="2" vertex="1">
                    <mxGeometry x="254" y="370" width="240" height="47.5" as="geometry"/>
                </mxCell>
                <mxCell id="188" value="" style="rounded=0;whiteSpace=wrap;html=1;fontSize=12;" parent="2" vertex="1">
                    <mxGeometry x="272.5" y="290" width="203" height="110" as="geometry"/>
                </mxCell>
                <mxCell id="187" value="" style="ellipse;whiteSpace=wrap;html=1;aspect=fixed;fontSize=12;" parent="2" vertex="1">
                    <mxGeometry x="290" y="267" width="35" height="35" as="geometry"/>
                </mxCell>
                <mxCell id="189" value="" style="ellipse;whiteSpace=wrap;html=1;aspect=fixed;fontSize=12;" parent="2" vertex="1">
                    <mxGeometry x="339" y="267" width="35" height="35" as="geometry"/>
                </mxCell>
                <mxCell id="194" value="" style="shape=umlActor;verticalLabelPosition=bottom;verticalAlign=top;html=1;outlineConnect=0;fontSize=12;" parent="2" vertex="1">
                    <mxGeometry x="430" y="310" width="40" height="90" as="geometry"/>
                </mxCell>
                <mxCell id="83" value="" style="shape=table;html=1;whiteSpace=wrap;startSize=0;container=1;collapsible=0;childLayout=tableLayout;columnLines=0;rowLines=0;fontSize=15;" parent="1" vertex="1">
                    <mxGeometry x="42" y="276" width="200" height="60" as="geometry"/>
                </mxCell>
                <mxCell id="84" value="" style="shape=tableRow;horizontal=0;startSize=0;swimlaneHead=0;swimlaneBody=0;top=0;left=0;bottom=0;right=0;collapsible=0;dropTarget=0;fillColor=none;points=[[0,0.5],[1,0.5]];portConstraint=eastwest;fontSize=15;" parent="83" vertex="1">
                    <mxGeometry width="200" height="20" as="geometry"/>
                </mxCell>
                <mxCell id="85" value="Value 1" style="shape=partialRectangle;html=1;whiteSpace=wrap;connectable=0;fillColor=none;top=0;left=0;bottom=0;right=0;overflow=hidden;fontSize=12;" parent="84" vertex="1">
                    <mxGeometry width="66" height="20" as="geometry">
                        <mxRectangle width="66" height="20" as="alternateBounds"/>
                    </mxGeometry>
                </mxCell>
                <mxCell id="86" value="Value 2" style="shape=partialRectangle;html=1;whiteSpace=wrap;connectable=0;fillColor=none;top=0;left=0;bottom=0;right=0;overflow=hidden;fontSize=12;" parent="84" vertex="1">
                    <mxGeometry x="66" width="68" height="20" as="geometry">
                        <mxRectangle width="68" height="20" as="alternateBounds"/>
                    </mxGeometry>
                </mxCell>
                <mxCell id="87" value="Value 3" style="shape=partialRectangle;html=1;whiteSpace=wrap;connectable=0;fillColor=none;top=0;left=0;bottom=0;right=0;overflow=hidden;fontSize=12;" parent="84" vertex="1">
                    <mxGeometry x="134" width="66" height="20" as="geometry">
                        <mxRectangle width="66" height="20" as="alternateBounds"/>
                    </mxGeometry>
                </mxCell>
                <mxCell id="88" value="" style="shape=tableRow;horizontal=0;startSize=0;swimlaneHead=0;swimlaneBody=0;top=0;left=0;bottom=0;right=0;collapsible=0;dropTarget=0;fillColor=none;points=[[0,0.5],[1,0.5]];portConstraint=eastwest;fontSize=15;" parent="83" vertex="1">
                    <mxGeometry y="20" width="200" height="20" as="geometry"/>
                </mxCell>
                <mxCell id="89" value="Value 4" style="shape=partialRectangle;html=1;whiteSpace=wrap;connectable=0;fillColor=none;top=0;left=0;bottom=0;right=0;overflow=hidden;fontSize=12;" parent="88" vertex="1">
                    <mxGeometry width="66" height="20" as="geometry">
                        <mxRectangle width="66" height="20" as="alternateBounds"/>
                    </mxGeometry>
                </mxCell>
                <mxCell id="90" value="Value 5" style="shape=partialRectangle;html=1;whiteSpace=wrap;connectable=0;fillColor=none;top=0;left=0;bottom=0;right=0;overflow=hidden;fontSize=12;" parent="88" vertex="1">
                    <mxGeometry x="66" width="68" height="20" as="geometry">
                        <mxRectangle width="68" height="20" as="alternateBounds"/>
                    </mxGeometry>
                </mxCell>
                <mxCell id="91" value="Value 6" style="shape=partialRectangle;html=1;whiteSpace=wrap;connectable=0;fillColor=none;top=0;left=0;bottom=0;right=0;overflow=hidden;fontSize=12;" parent="88" vertex="1">
                    <mxGeometry x="134" width="66" height="20" as="geometry">
                        <mxRectangle width="66" height="20" as="alternateBounds"/>
                    </mxGeometry>
                </mxCell>
                <mxCell id="92" value="" style="shape=tableRow;horizontal=0;startSize=0;swimlaneHead=0;swimlaneBody=0;top=0;left=0;bottom=0;right=0;collapsible=0;dropTarget=0;fillColor=none;points=[[0,0.5],[1,0.5]];portConstraint=eastwest;fontSize=15;" parent="83" vertex="1">
                    <mxGeometry y="40" width="200" height="20" as="geometry"/>
                </mxCell>
                <mxCell id="93" value="Value 7" style="shape=partialRectangle;html=1;whiteSpace=wrap;connectable=0;fillColor=none;top=0;left=0;bottom=0;right=0;overflow=hidden;fontSize=12;" parent="92" vertex="1">
                    <mxGeometry width="66" height="20" as="geometry">
                        <mxRectangle width="66" height="20" as="alternateBounds"/>
                    </mxGeometry>
                </mxCell>
                <mxCell id="94" value="Value 8" style="shape=partialRectangle;html=1;whiteSpace=wrap;connectable=0;fillColor=none;top=0;left=0;bottom=0;right=0;overflow=hidden;fontSize=12;" parent="92" vertex="1">
                    <mxGeometry x="66" width="68" height="20" as="geometry">
                        <mxRectangle width="68" height="20" as="alternateBounds"/>
                    </mxGeometry>
                </mxCell>
                <mxCell id="95" value="Value 9" style="shape=partialRectangle;html=1;whiteSpace=wrap;connectable=0;fillColor=none;top=0;left=0;bottom=0;right=0;overflow=hidden;fontSize=12;" parent="92" vertex="1">
                    <mxGeometry x="134" width="66" height="20" as="geometry">
                        <mxRectangle width="66" height="20" as="alternateBounds"/>
                    </mxGeometry>
                </mxCell>
            </root>
        </mxGraphModel>
    </diagram>
</mxfile>